<mxfile host="app.diagrams.net" agent="Mozilla/5.0 (Windows NT 10.0; Win64; x64) AppleWebKit/537.36 (KHTML, like Gecko) Chrome/129.0.0.0 Safari/537.36 Edg/129.0.0.0" version="24.7.16">
  <diagram id="i8oAYvoEwji6KUJwt9vs" name="第 1 页">
    <mxGraphModel dx="2893" dy="2278" grid="1" gridSize="10" guides="1" tooltips="1" connect="1" arrows="1" fold="1" page="1" pageScale="1" pageWidth="827" pageHeight="1169" math="0" shadow="0">
      <root>
        <mxCell id="0" />
        <mxCell id="1" parent="0" />
        <mxCell id="2" value="BrowserWindow" style="rounded=0;whiteSpace=wrap;html=1;" parent="1" vertex="1">
          <mxGeometry x="50" y="170" width="120" height="60" as="geometry" />
        </mxCell>
        <mxCell id="29" style="edgeStyle=none;html=1;entryX=1;entryY=0.5;entryDx=0;entryDy=0;" parent="1" source="3" target="6" edge="1">
          <mxGeometry relative="1" as="geometry" />
        </mxCell>
        <mxCell id="39" style="edgeStyle=none;html=1;" parent="1" source="3" target="35" edge="1">
          <mxGeometry relative="1" as="geometry" />
        </mxCell>
        <mxCell id="44" style="edgeStyle=none;html=1;entryX=0.5;entryY=0;entryDx=0;entryDy=0;exitX=0.5;exitY=1;exitDx=0;exitDy=0;" parent="1" source="3" target="40" edge="1">
          <mxGeometry relative="1" as="geometry">
            <Array as="points" />
          </mxGeometry>
        </mxCell>
        <mxCell id="128" style="edgeStyle=elbowEdgeStyle;elbow=vertical;html=1;" parent="1" source="3" target="123" edge="1">
          <mxGeometry relative="1" as="geometry" />
        </mxCell>
        <mxCell id="3" value="ui::Compositor" style="rounded=0;whiteSpace=wrap;html=1;" parent="1" vertex="1">
          <mxGeometry x="520" y="460" width="120" height="60" as="geometry" />
        </mxCell>
        <mxCell id="5" value="" style="endArrow=classic;startArrow=classic;html=1;exitX=1;exitY=0.5;exitDx=0;exitDy=0;entryX=-0.003;entryY=0.351;entryDx=0;entryDy=0;entryPerimeter=0;" parent="1" source="2" target="141" edge="1">
          <mxGeometry width="50" height="50" relative="1" as="geometry">
            <mxPoint x="340" y="300" as="sourcePoint" />
            <mxPoint x="240" y="220" as="targetPoint" />
          </mxGeometry>
        </mxCell>
        <mxCell id="32" style="edgeStyle=none;html=1;entryX=0.5;entryY=0;entryDx=0;entryDy=0;" parent="1" source="6" target="31" edge="1">
          <mxGeometry relative="1" as="geometry" />
        </mxCell>
        <mxCell id="131" style="edgeStyle=elbowEdgeStyle;elbow=vertical;html=1;" parent="1" source="6" target="129" edge="1">
          <mxGeometry relative="1" as="geometry">
            <Array as="points">
              <mxPoint x="-210" y="430" />
              <mxPoint x="50" y="370" />
            </Array>
          </mxGeometry>
        </mxCell>
        <mxCell id="6" value="LayerTreeHost" style="rounded=0;whiteSpace=wrap;html=1;" parent="1" vertex="1">
          <mxGeometry x="190" y="420" width="120" height="60" as="geometry" />
        </mxCell>
        <mxCell id="12" value="BrowserFrame" style="swimlane;fontStyle=0;childLayout=stackLayout;horizontal=1;startSize=30;horizontalStack=0;resizeParent=1;resizeParentMax=0;resizeLast=0;collapsible=1;marginBottom=0;whiteSpace=wrap;html=1;" parent="1" vertex="1">
          <mxGeometry x="230" y="70" width="140" height="60" as="geometry" />
        </mxCell>
        <mxCell id="13" value="Widget" style="text;strokeColor=none;fillColor=none;align=left;verticalAlign=middle;spacingLeft=4;spacingRight=4;overflow=hidden;points=[[0,0.5],[1,0.5]];portConstraint=eastwest;rotatable=0;whiteSpace=wrap;html=1;" parent="12" vertex="1">
          <mxGeometry y="30" width="140" height="30" as="geometry" />
        </mxCell>
        <mxCell id="88" style="edgeStyle=none;html=1;entryX=0.5;entryY=0;entryDx=0;entryDy=0;" parent="1" source="16" target="21" edge="1">
          <mxGeometry relative="1" as="geometry" />
        </mxCell>
        <mxCell id="93" style="edgeStyle=none;html=1;entryX=0;entryY=0.5;entryDx=0;entryDy=0;" parent="1" source="16" target="89" edge="1">
          <mxGeometry relative="1" as="geometry" />
        </mxCell>
        <mxCell id="16" value="DesktopBrowserFrameAura" style="swimlane;fontStyle=0;childLayout=stackLayout;horizontal=1;startSize=30;horizontalStack=0;resizeParent=1;resizeParentMax=0;resizeLast=0;collapsible=1;marginBottom=0;whiteSpace=wrap;html=1;" parent="1" vertex="1">
          <mxGeometry x="490" y="70" width="180" height="120" as="geometry" />
        </mxCell>
        <mxCell id="17" value="DesktopNativeWidgetAura" style="text;strokeColor=none;fillColor=none;align=left;verticalAlign=middle;spacingLeft=4;spacingRight=4;overflow=hidden;points=[[0,0.5],[1,0.5]];portConstraint=eastwest;rotatable=0;whiteSpace=wrap;html=1;" parent="16" vertex="1">
          <mxGeometry y="30" width="180" height="30" as="geometry" />
        </mxCell>
        <mxCell id="18" value="NativeWidgetPrivate" style="text;strokeColor=none;fillColor=none;align=left;verticalAlign=middle;spacingLeft=4;spacingRight=4;overflow=hidden;points=[[0,0.5],[1,0.5]];portConstraint=eastwest;rotatable=0;whiteSpace=wrap;html=1;" parent="16" vertex="1">
          <mxGeometry y="60" width="180" height="30" as="geometry" />
        </mxCell>
        <mxCell id="19" value="NativeWidget" style="text;strokeColor=none;fillColor=none;align=left;verticalAlign=middle;spacingLeft=4;spacingRight=4;overflow=hidden;points=[[0,0.5],[1,0.5]];portConstraint=eastwest;rotatable=0;whiteSpace=wrap;html=1;" parent="16" vertex="1">
          <mxGeometry y="90" width="180" height="30" as="geometry" />
        </mxCell>
        <mxCell id="20" value="" style="endArrow=classic;html=1;exitX=1;exitY=0.5;exitDx=0;exitDy=0;entryX=0;entryY=0.25;entryDx=0;entryDy=0;" parent="1" source="12" target="16" edge="1">
          <mxGeometry width="50" height="50" relative="1" as="geometry">
            <mxPoint x="340" y="90" as="sourcePoint" />
            <mxPoint x="390" y="40" as="targetPoint" />
          </mxGeometry>
        </mxCell>
        <mxCell id="21" value="BrowserDesktopWindowTreeHostWin" style="swimlane;fontStyle=0;childLayout=stackLayout;horizontal=1;startSize=30;horizontalStack=0;resizeParent=1;resizeParentMax=0;resizeLast=0;collapsible=1;marginBottom=0;whiteSpace=wrap;html=1;" parent="1" vertex="1">
          <mxGeometry x="450" y="250" width="260" height="120" as="geometry" />
        </mxCell>
        <mxCell id="22" value="DesktopWindowTreeHostWin" style="text;strokeColor=none;fillColor=none;align=left;verticalAlign=middle;spacingLeft=4;spacingRight=4;overflow=hidden;points=[[0,0.5],[1,0.5]];portConstraint=eastwest;rotatable=0;whiteSpace=wrap;html=1;" parent="21" vertex="1">
          <mxGeometry y="30" width="260" height="30" as="geometry" />
        </mxCell>
        <mxCell id="23" value="DesktopWindowTreeHost" style="text;strokeColor=none;fillColor=none;align=left;verticalAlign=middle;spacingLeft=4;spacingRight=4;overflow=hidden;points=[[0,0.5],[1,0.5]];portConstraint=eastwest;rotatable=0;whiteSpace=wrap;html=1;" parent="21" vertex="1">
          <mxGeometry y="60" width="260" height="30" as="geometry" />
        </mxCell>
        <mxCell id="24" value="WindowTreeHost" style="text;strokeColor=none;fillColor=none;align=left;verticalAlign=middle;spacingLeft=4;spacingRight=4;overflow=hidden;points=[[0,0.5],[1,0.5]];portConstraint=eastwest;rotatable=0;whiteSpace=wrap;html=1;" parent="21" vertex="1">
          <mxGeometry y="90" width="260" height="30" as="geometry" />
        </mxCell>
        <mxCell id="28" style="edgeStyle=none;html=1;entryX=0.5;entryY=0;entryDx=0;entryDy=0;" parent="1" source="24" target="3" edge="1">
          <mxGeometry relative="1" as="geometry" />
        </mxCell>
        <mxCell id="33" style="edgeStyle=none;html=1;exitX=1;exitY=0.5;exitDx=0;exitDy=0;entryX=0;entryY=0.5;entryDx=0;entryDy=0;" parent="1" source="31" target="3" edge="1">
          <mxGeometry relative="1" as="geometry" />
        </mxCell>
        <mxCell id="118" style="edgeStyle=elbowEdgeStyle;elbow=vertical;html=1;exitX=0;exitY=0.5;exitDx=0;exitDy=0;entryX=0.5;entryY=1;entryDx=0;entryDy=0;" parent="1" source="31" target="117" edge="1">
          <mxGeometry relative="1" as="geometry" />
        </mxCell>
        <mxCell id="31" value="SingleThreadProxy" style="rounded=0;whiteSpace=wrap;html=1;" parent="1" vertex="1">
          <mxGeometry x="190" y="585" width="120" height="60" as="geometry" />
        </mxCell>
        <mxCell id="40" value="root_web_layer_" style="swimlane;fontStyle=0;childLayout=stackLayout;horizontal=1;startSize=30;horizontalStack=0;resizeParent=1;resizeParentMax=0;resizeLast=0;collapsible=1;marginBottom=0;whiteSpace=wrap;html=1;" parent="1" vertex="1">
          <mxGeometry x="510" y="720" width="140" height="60" as="geometry" />
        </mxCell>
        <mxCell id="41" value="cc::Layer" style="text;strokeColor=none;fillColor=none;align=left;verticalAlign=middle;spacingLeft=4;spacingRight=4;overflow=hidden;points=[[0,0.5],[1,0.5]];portConstraint=eastwest;rotatable=0;whiteSpace=wrap;html=1;" parent="40" vertex="1">
          <mxGeometry y="30" width="140" height="30" as="geometry" />
        </mxCell>
        <mxCell id="49" value="" style="group" parent="1" vertex="1" connectable="0">
          <mxGeometry x="790" y="460" width="140" height="120" as="geometry" />
        </mxCell>
        <mxCell id="35" value="root_layer_" style="swimlane;fontStyle=0;childLayout=stackLayout;horizontal=1;startSize=30;horizontalStack=0;resizeParent=1;resizeParentMax=0;resizeLast=0;collapsible=1;marginBottom=0;whiteSpace=wrap;html=1;" parent="49" vertex="1">
          <mxGeometry width="140" height="60" as="geometry" />
        </mxCell>
        <mxCell id="36" value="ui::Layer" style="text;strokeColor=none;fillColor=none;align=left;verticalAlign=middle;spacingLeft=4;spacingRight=4;overflow=hidden;points=[[0,0.5],[1,0.5]];portConstraint=eastwest;rotatable=0;whiteSpace=wrap;html=1;" parent="35" vertex="1">
          <mxGeometry y="30" width="140" height="30" as="geometry" />
        </mxCell>
        <mxCell id="47" value="cc::Layer cc_layer_" style="rounded=0;whiteSpace=wrap;html=1;" parent="49" vertex="1">
          <mxGeometry y="60" width="140" height="40" as="geometry" />
        </mxCell>
        <mxCell id="48" value="ui::Layer" style="text;strokeColor=none;fillColor=none;align=left;verticalAlign=middle;spacingLeft=4;spacingRight=4;overflow=hidden;points=[[0,0.5],[1,0.5]];portConstraint=eastwest;rotatable=0;whiteSpace=wrap;html=1;" parent="49" vertex="1">
          <mxGeometry y="30" width="140" height="30" as="geometry" />
        </mxCell>
        <mxCell id="52" style="edgeStyle=none;html=1;exitX=1.007;exitY=-0.039;exitDx=0;exitDy=0;exitPerimeter=0;" parent="1" source="41" target="47" edge="1">
          <mxGeometry relative="1" as="geometry">
            <mxPoint x="520" y="730" as="sourcePoint" />
            <Array as="points">
              <mxPoint x="860" y="750" />
            </Array>
          </mxGeometry>
        </mxCell>
        <mxCell id="99" value="AddChild" style="edgeLabel;html=1;align=center;verticalAlign=middle;resizable=0;points=[];" parent="52" vertex="1" connectable="0">
          <mxGeometry x="-0.2766" y="-1" relative="1" as="geometry">
            <mxPoint as="offset" />
          </mxGeometry>
        </mxCell>
        <mxCell id="61" style="edgeStyle=none;html=1;entryX=0;entryY=0.5;entryDx=0;entryDy=0;" parent="1" source="53" target="57" edge="1">
          <mxGeometry relative="1" as="geometry" />
        </mxCell>
        <mxCell id="81" style="edgeStyle=none;html=1;entryX=0.5;entryY=1;entryDx=0;entryDy=0;" parent="1" source="53" target="77" edge="1">
          <mxGeometry relative="1" as="geometry" />
        </mxCell>
        <mxCell id="198" style="edgeStyle=orthogonalEdgeStyle;html=1;entryX=0.5;entryY=1;entryDx=0;entryDy=0;exitX=0.75;exitY=0;exitDx=0;exitDy=0;" parent="1" source="53" target="197" edge="1">
          <mxGeometry relative="1" as="geometry">
            <Array as="points">
              <mxPoint x="615" y="-340" />
              <mxPoint x="1480" y="-340" />
            </Array>
          </mxGeometry>
        </mxCell>
        <mxCell id="199" value="CreateWebContentsView" style="edgeLabel;html=1;align=center;verticalAlign=middle;resizable=0;points=[];" parent="198" vertex="1" connectable="0">
          <mxGeometry x="-0.1098" y="4" relative="1" as="geometry">
            <mxPoint as="offset" />
          </mxGeometry>
        </mxCell>
        <mxCell id="53" value="WebContentsImpl" style="swimlane;fontStyle=0;childLayout=stackLayout;horizontal=1;startSize=30;horizontalStack=0;resizeParent=1;resizeParentMax=0;resizeLast=0;collapsible=1;marginBottom=0;whiteSpace=wrap;html=1;" parent="1" vertex="1">
          <mxGeometry x="510" y="-260" width="140" height="60" as="geometry" />
        </mxCell>
        <mxCell id="54" value="WebContents" style="text;strokeColor=none;fillColor=none;align=left;verticalAlign=middle;spacingLeft=4;spacingRight=4;overflow=hidden;points=[[0,0.5],[1,0.5]];portConstraint=eastwest;rotatable=0;whiteSpace=wrap;html=1;" parent="53" vertex="1">
          <mxGeometry y="30" width="140" height="30" as="geometry" />
        </mxCell>
        <mxCell id="60" value="" style="group" parent="1" vertex="1" connectable="0">
          <mxGeometry x="730" y="-260" width="120" height="85" as="geometry" />
        </mxCell>
        <mxCell id="57" value="primary_frame_tree_" style="rounded=0;whiteSpace=wrap;html=1;" parent="60" vertex="1">
          <mxGeometry width="120" height="42.5" as="geometry" />
        </mxCell>
        <mxCell id="59" value="FrameTree" style="rounded=0;whiteSpace=wrap;html=1;" parent="60" vertex="1">
          <mxGeometry y="42.5" width="120" height="42.5" as="geometry" />
        </mxCell>
        <mxCell id="65" style="edgeStyle=none;html=1;entryX=0;entryY=0.5;entryDx=0;entryDy=0;" parent="1" source="62" target="64" edge="1">
          <mxGeometry relative="1" as="geometry" />
        </mxCell>
        <mxCell id="69" style="edgeStyle=none;html=1;exitX=0.5;exitY=1;exitDx=0;exitDy=0;entryX=0.5;entryY=0;entryDx=0;entryDy=0;" parent="1" source="62" target="68" edge="1">
          <mxGeometry relative="1" as="geometry" />
        </mxCell>
        <mxCell id="62" value="RenderFrameHostManager" style="rounded=0;whiteSpace=wrap;html=1;" parent="1" vertex="1">
          <mxGeometry x="920" y="-268.75" width="180" height="60" as="geometry" />
        </mxCell>
        <mxCell id="63" style="edgeStyle=none;html=1;" parent="1" source="57" target="62" edge="1">
          <mxGeometry relative="1" as="geometry" />
        </mxCell>
        <mxCell id="67" style="edgeStyle=none;html=1;entryX=0;entryY=0.5;entryDx=0;entryDy=0;" parent="1" source="64" target="66" edge="1">
          <mxGeometry relative="1" as="geometry" />
        </mxCell>
        <mxCell id="64" value="RenderViewHostImpl" style="whiteSpace=wrap;html=1;" parent="1" vertex="1">
          <mxGeometry x="1181" y="-268.75" width="139" height="60" as="geometry" />
        </mxCell>
        <mxCell id="204" style="edgeStyle=elbowEdgeStyle;html=1;" parent="1" source="66" edge="1">
          <mxGeometry relative="1" as="geometry">
            <mxPoint x="1480" y="-690" as="targetPoint" />
            <Array as="points">
              <mxPoint x="1630" y="-480" />
            </Array>
          </mxGeometry>
        </mxCell>
        <mxCell id="205" value="frame_sink" style="edgeLabel;html=1;align=center;verticalAlign=middle;resizable=0;points=[];" parent="204" vertex="1" connectable="0">
          <mxGeometry x="-0.2098" y="-3" relative="1" as="geometry">
            <mxPoint as="offset" />
          </mxGeometry>
        </mxCell>
        <mxCell id="66" value="RenderWidgetHostImpl" style="whiteSpace=wrap;html=1;" parent="1" vertex="1">
          <mxGeometry x="1400" y="-268.75" width="170" height="60" as="geometry" />
        </mxCell>
        <mxCell id="68" value="RenderFrameHostImpl" style="whiteSpace=wrap;html=1;" parent="1" vertex="1">
          <mxGeometry x="905" y="-110" width="210" height="60" as="geometry" />
        </mxCell>
        <mxCell id="75" style="edgeStyle=none;html=1;entryX=0;entryY=0.25;entryDx=0;entryDy=0;" parent="1" source="71" target="53" edge="1">
          <mxGeometry relative="1" as="geometry">
            <Array as="points">
              <mxPoint x="450" y="-40" />
              <mxPoint x="450" y="-245" />
            </Array>
          </mxGeometry>
        </mxCell>
        <mxCell id="77" value="WebContentsViewAura" style="swimlane;fontStyle=0;childLayout=stackLayout;horizontal=1;startSize=30;horizontalStack=0;resizeParent=1;resizeParentMax=0;resizeLast=0;collapsible=1;marginBottom=0;whiteSpace=wrap;html=1;" parent="1" vertex="1">
          <mxGeometry x="510" y="-450" width="140" height="60" as="geometry" />
        </mxCell>
        <mxCell id="78" value="WebContentsView" style="text;strokeColor=none;fillColor=none;align=left;verticalAlign=middle;spacingLeft=4;spacingRight=4;overflow=hidden;points=[[0,0.5],[1,0.5]];portConstraint=eastwest;rotatable=0;whiteSpace=wrap;html=1;" parent="77" vertex="1">
          <mxGeometry y="30" width="140" height="30" as="geometry" />
        </mxCell>
        <mxCell id="85" style="edgeStyle=none;html=1;entryX=0;entryY=0.5;entryDx=0;entryDy=0;" parent="1" source="82" target="84" edge="1">
          <mxGeometry relative="1" as="geometry" />
        </mxCell>
        <mxCell id="210" style="edgeStyle=elbowEdgeStyle;html=1;entryX=0;entryY=0.5;entryDx=0;entryDy=0;" parent="1" source="82" target="206" edge="1">
          <mxGeometry relative="1" as="geometry">
            <Array as="points">
              <mxPoint x="830" y="-580" />
            </Array>
          </mxGeometry>
        </mxCell>
        <mxCell id="211" value="AddChild" style="edgeLabel;html=1;align=center;verticalAlign=middle;resizable=0;points=[];" parent="210" vertex="1" connectable="0">
          <mxGeometry x="0.3143" relative="1" as="geometry">
            <mxPoint as="offset" />
          </mxGeometry>
        </mxCell>
        <mxCell id="82" value="aura::Window" style="whiteSpace=wrap;html=1;" parent="1" vertex="1">
          <mxGeometry x="720" y="-435" width="120" height="60" as="geometry" />
        </mxCell>
        <mxCell id="83" style="edgeStyle=none;html=1;entryX=0;entryY=0.5;entryDx=0;entryDy=0;" parent="1" source="78" target="82" edge="1">
          <mxGeometry relative="1" as="geometry" />
        </mxCell>
        <mxCell id="84" value="ui::Layer" style="whiteSpace=wrap;html=1;" parent="1" vertex="1">
          <mxGeometry x="880" y="-435" width="120" height="60" as="geometry" />
        </mxCell>
        <mxCell id="87" style="edgeStyle=none;html=1;entryX=0;entryY=0.5;entryDx=0;entryDy=0;" parent="1" source="86" target="2" edge="1">
          <mxGeometry relative="1" as="geometry" />
        </mxCell>
        <mxCell id="86" value="Browser" style="whiteSpace=wrap;html=1;" parent="1" vertex="1">
          <mxGeometry x="-150" y="170" width="120" height="60" as="geometry" />
        </mxCell>
        <mxCell id="89" value="content_window_" style="swimlane;fontStyle=0;childLayout=stackLayout;horizontal=1;startSize=30;horizontalStack=0;resizeParent=1;resizeParentMax=0;resizeLast=0;collapsible=1;marginBottom=0;whiteSpace=wrap;html=1;" parent="1" vertex="1">
          <mxGeometry x="790" y="100" width="140" height="60" as="geometry" />
        </mxCell>
        <mxCell id="90" value="aura::Window" style="text;strokeColor=none;fillColor=none;align=left;verticalAlign=middle;spacingLeft=4;spacingRight=4;overflow=hidden;points=[[0,0.5],[1,0.5]];portConstraint=eastwest;rotatable=0;whiteSpace=wrap;html=1;" parent="89" vertex="1">
          <mxGeometry y="30" width="140" height="30" as="geometry" />
        </mxCell>
        <mxCell id="96" style="edgeStyle=none;html=1;exitX=0.5;exitY=0;exitDx=0;exitDy=0;" parent="1" source="94" target="90" edge="1">
          <mxGeometry relative="1" as="geometry" />
        </mxCell>
        <mxCell id="97" value="AddChild" style="edgeLabel;html=1;align=center;verticalAlign=middle;resizable=0;points=[];" parent="96" vertex="1" connectable="0">
          <mxGeometry x="0.1714" y="-1" relative="1" as="geometry">
            <mxPoint as="offset" />
          </mxGeometry>
        </mxCell>
        <mxCell id="100" style="edgeStyle=none;html=1;entryX=0.5;entryY=0;entryDx=0;entryDy=0;" parent="1" source="94" target="35" edge="1">
          <mxGeometry relative="1" as="geometry" />
        </mxCell>
        <mxCell id="94" value="aura::Window" style="whiteSpace=wrap;html=1;" parent="1" vertex="1">
          <mxGeometry x="800" y="295" width="120" height="60" as="geometry" />
        </mxCell>
        <mxCell id="95" style="edgeStyle=none;html=1;entryX=0;entryY=0.5;entryDx=0;entryDy=0;" parent="1" source="23" target="94" edge="1">
          <mxGeometry relative="1" as="geometry" />
        </mxCell>
        <mxCell id="101" style="edgeStyle=none;html=1;entryX=1;entryY=0.5;entryDx=0;entryDy=0;exitX=-0.01;exitY=-0.045;exitDx=0;exitDy=0;exitPerimeter=0;" parent="1" source="48" target="3" edge="1">
          <mxGeometry relative="1" as="geometry" />
        </mxCell>
        <mxCell id="106" style="edgeStyle=none;html=1;entryX=0.5;entryY=0;entryDx=0;entryDy=0;" parent="1" source="90" target="105" edge="1">
          <mxGeometry relative="1" as="geometry">
            <Array as="points">
              <mxPoint x="1180" y="150" />
            </Array>
          </mxGeometry>
        </mxCell>
        <mxCell id="108" value="" style="group" parent="1" vertex="1" connectable="0">
          <mxGeometry x="1121" y="320" width="120" height="80" as="geometry" />
        </mxCell>
        <mxCell id="105" value="ui::Layer" style="whiteSpace=wrap;html=1;" parent="108" vertex="1">
          <mxGeometry width="120" height="60" as="geometry" />
        </mxCell>
        <mxCell id="107" value="cc::Layer cc_layer_" style="rounded=0;whiteSpace=wrap;html=1;" parent="108" vertex="1">
          <mxGeometry y="50" width="120" height="30" as="geometry" />
        </mxCell>
        <mxCell id="109" style="edgeStyle=none;html=1;entryX=0.5;entryY=1;entryDx=0;entryDy=0;" parent="1" source="47" target="107" edge="1">
          <mxGeometry relative="1" as="geometry">
            <Array as="points">
              <mxPoint x="1181" y="540" />
            </Array>
          </mxGeometry>
        </mxCell>
        <mxCell id="110" value="AddChild" style="edgeLabel;html=1;align=center;verticalAlign=middle;resizable=0;points=[];" parent="109" vertex="1" connectable="0">
          <mxGeometry x="-0.133" y="2" relative="1" as="geometry">
            <mxPoint x="1" as="offset" />
          </mxGeometry>
        </mxCell>
        <mxCell id="112" value="cc::Layer cc_layer_" style="rounded=0;whiteSpace=wrap;html=1;" parent="1" vertex="1">
          <mxGeometry x="880" y="-400" width="120" height="25" as="geometry" />
        </mxCell>
        <mxCell id="120" style="edgeStyle=elbowEdgeStyle;elbow=vertical;html=1;entryX=0.5;entryY=1;entryDx=0;entryDy=0;" parent="1" source="117" target="31" edge="1">
          <mxGeometry relative="1" as="geometry">
            <Array as="points">
              <mxPoint x="170" y="700" />
            </Array>
          </mxGeometry>
        </mxCell>
        <mxCell id="121" value="LayerTreeHostImplClient" style="edgeLabel;html=1;align=center;verticalAlign=middle;resizable=0;points=[];" parent="120" vertex="1" connectable="0">
          <mxGeometry x="0.1438" y="1" relative="1" as="geometry">
            <mxPoint as="offset" />
          </mxGeometry>
        </mxCell>
        <mxCell id="132" style="edgeStyle=elbowEdgeStyle;elbow=vertical;html=1;exitX=0;exitY=0.5;exitDx=0;exitDy=0;entryX=0;entryY=0.5;entryDx=0;entryDy=0;" parent="1" source="117" target="129" edge="1">
          <mxGeometry relative="1" as="geometry">
            <Array as="points">
              <mxPoint x="-220" y="770" />
              <mxPoint x="20" y="690" />
              <mxPoint x="-30" y="690" />
            </Array>
          </mxGeometry>
        </mxCell>
        <mxCell id="135" value="" style="edgeStyle=elbowEdgeStyle;elbow=vertical;html=1;" parent="1" source="117" target="134" edge="1">
          <mxGeometry relative="1" as="geometry" />
        </mxCell>
        <mxCell id="136" value="DrawLayers" style="edgeLabel;html=1;align=center;verticalAlign=middle;resizable=0;points=[];" parent="135" vertex="1" connectable="0">
          <mxGeometry x="0.1753" y="-2" relative="1" as="geometry">
            <mxPoint as="offset" />
          </mxGeometry>
        </mxCell>
        <mxCell id="117" value="LayerTreeHostImpl" style="rounded=0;whiteSpace=wrap;html=1;" parent="1" vertex="1">
          <mxGeometry x="10" y="510" width="120" height="60" as="geometry" />
        </mxCell>
        <mxCell id="130" value="Create" style="edgeStyle=elbowEdgeStyle;elbow=vertical;html=1;" parent="1" source="123" target="129" edge="1">
          <mxGeometry relative="1" as="geometry" />
        </mxCell>
        <mxCell id="123" value="context_factory_" style="swimlane;fontStyle=0;childLayout=stackLayout;horizontal=1;startSize=30;horizontalStack=0;resizeParent=1;resizeParentMax=0;resizeLast=0;collapsible=1;marginBottom=0;whiteSpace=wrap;html=1;" parent="1" vertex="1">
          <mxGeometry x="110" y="910" width="190" height="60" as="geometry" />
        </mxCell>
        <mxCell id="124" value="VizProcessTransportFactory" style="text;strokeColor=none;fillColor=none;align=left;verticalAlign=middle;spacingLeft=4;spacingRight=4;overflow=hidden;points=[[0,0.5],[1,0.5]];portConstraint=eastwest;rotatable=0;whiteSpace=wrap;html=1;" parent="123" vertex="1">
          <mxGeometry y="30" width="190" height="30" as="geometry" />
        </mxCell>
        <mxCell id="129" value="AsyncLayerTreeFrameSink" style="whiteSpace=wrap;html=1;fontStyle=0;startSize=30;" parent="1" vertex="1">
          <mxGeometry x="-180" y="910" width="175" height="60" as="geometry" />
        </mxCell>
        <mxCell id="137" value="SubmitCompositorFrame" style="edgeStyle=elbowEdgeStyle;elbow=vertical;html=1;exitX=0.5;exitY=1;exitDx=0;exitDy=0;" parent="1" source="134" target="129" edge="1">
          <mxGeometry relative="1" as="geometry" />
        </mxCell>
        <mxCell id="134" value="CompositorFrame" style="whiteSpace=wrap;html=1;rounded=0;" parent="1" vertex="1">
          <mxGeometry x="-152.5" y="670" width="120" height="60" as="geometry" />
        </mxCell>
        <mxCell id="141" value="BrowserView" style="swimlane;fontStyle=0;childLayout=stackLayout;horizontal=1;startSize=30;horizontalStack=0;resizeParent=1;resizeParentMax=0;resizeLast=0;collapsible=1;marginBottom=0;whiteSpace=wrap;html=1;" parent="1" vertex="1">
          <mxGeometry x="240" y="170" width="140" height="90" as="geometry" />
        </mxCell>
        <mxCell id="142" value="ClientView" style="text;strokeColor=none;fillColor=none;align=left;verticalAlign=middle;spacingLeft=4;spacingRight=4;overflow=hidden;points=[[0,0.5],[1,0.5]];portConstraint=eastwest;rotatable=0;whiteSpace=wrap;html=1;" parent="141" vertex="1">
          <mxGeometry y="30" width="140" height="30" as="geometry" />
        </mxCell>
        <mxCell id="143" value="View" style="text;strokeColor=none;fillColor=none;align=left;verticalAlign=middle;spacingLeft=4;spacingRight=4;overflow=hidden;points=[[0,0.5],[1,0.5]];portConstraint=eastwest;rotatable=0;whiteSpace=wrap;html=1;" parent="141" vertex="1">
          <mxGeometry y="60" width="140" height="30" as="geometry" />
        </mxCell>
        <mxCell id="150" value="" style="edgeStyle=none;html=1;" parent="1" source="147" edge="1">
          <mxGeometry relative="1" as="geometry">
            <mxPoint x="-670" y="600" as="targetPoint" />
          </mxGeometry>
        </mxCell>
        <mxCell id="161" value="SetContentsView" style="edgeLabel;html=1;align=center;verticalAlign=middle;resizable=0;points=[];" parent="150" vertex="1" connectable="0">
          <mxGeometry x="-0.3026" relative="1" as="geometry">
            <mxPoint as="offset" />
          </mxGeometry>
        </mxCell>
        <mxCell id="192" style="edgeStyle=elbowEdgeStyle;elbow=vertical;html=1;exitX=0.5;exitY=0;exitDx=0;exitDy=0;entryX=0.5;entryY=0;entryDx=0;entryDy=0;" parent="1" edge="1">
          <mxGeometry relative="1" as="geometry">
            <Array as="points">
              <mxPoint x="100" y="30" />
            </Array>
            <mxPoint x="-670" y="460" as="sourcePoint" />
            <mxPoint x="300" y="70" as="targetPoint" />
          </mxGeometry>
        </mxCell>
        <mxCell id="193" value="GetWidget" style="edgeLabel;html=1;align=center;verticalAlign=middle;resizable=0;points=[];" parent="192" vertex="1" connectable="0">
          <mxGeometry x="-0.3267" relative="1" as="geometry">
            <mxPoint x="915" y="20" as="offset" />
          </mxGeometry>
        </mxCell>
        <mxCell id="194" value="ReorderLayers GetWidget" style="edgeLabel;html=1;align=center;verticalAlign=middle;resizable=0;points=[];" parent="192" vertex="1" connectable="0">
          <mxGeometry x="-0.4982" y="-3" relative="1" as="geometry">
            <mxPoint y="-29" as="offset" />
          </mxGeometry>
        </mxCell>
        <mxCell id="147" value="RootView" style="whiteSpace=wrap;html=1;" parent="1" vertex="1">
          <mxGeometry x="-730" y="460" width="120" height="60" as="geometry" />
        </mxCell>
        <mxCell id="156" value="SetFrameView" style="edgeStyle=none;html=1;" parent="1" source="151" target="155" edge="1">
          <mxGeometry relative="1" as="geometry" />
        </mxCell>
        <mxCell id="151" value="contents_view" style="swimlane;fontStyle=0;childLayout=stackLayout;horizontal=1;startSize=30;horizontalStack=0;resizeParent=1;resizeParentMax=0;resizeLast=0;collapsible=1;marginBottom=0;whiteSpace=wrap;html=1;" parent="1" vertex="1">
          <mxGeometry x="-740" y="600" width="140" height="60" as="geometry" />
        </mxCell>
        <mxCell id="152" value="NonClientView" style="text;strokeColor=none;fillColor=none;align=left;verticalAlign=middle;spacingLeft=4;spacingRight=4;overflow=hidden;points=[[0,0.5],[1,0.5]];portConstraint=eastwest;rotatable=0;whiteSpace=wrap;html=1;" parent="151" vertex="1">
          <mxGeometry y="30" width="140" height="30" as="geometry" />
        </mxCell>
        <mxCell id="159" style="edgeStyle=none;html=1;entryX=0;entryY=0.5;entryDx=0;entryDy=0;exitX=0.5;exitY=1;exitDx=0;exitDy=0;" parent="1" source="155" target="142" edge="1">
          <mxGeometry relative="1" as="geometry">
            <Array as="points">
              <mxPoint x="-670" y="940" />
              <mxPoint x="-440" y="940" />
              <mxPoint x="-440" y="320" />
              <mxPoint x="200" y="320" />
              <mxPoint x="200" y="220" />
            </Array>
          </mxGeometry>
        </mxCell>
        <mxCell id="160" value="InsertClientView" style="edgeLabel;html=1;align=center;verticalAlign=middle;resizable=0;points=[];" parent="159" vertex="1" connectable="0">
          <mxGeometry x="-0.3099" relative="1" as="geometry">
            <mxPoint as="offset" />
          </mxGeometry>
        </mxCell>
        <mxCell id="155" value="BrowserFrameViewWin" style="whiteSpace=wrap;html=1;fontStyle=0;startSize=30;" parent="1" vertex="1">
          <mxGeometry x="-750" y="740" width="160" height="60" as="geometry" />
        </mxCell>
        <mxCell id="164" style="edgeStyle=none;html=1;exitX=0;exitY=0.5;exitDx=0;exitDy=0;entryX=1;entryY=0.5;entryDx=0;entryDy=0;" parent="1" source="143" target="166" edge="1">
          <mxGeometry relative="1" as="geometry">
            <mxPoint x="50" as="targetPoint" />
          </mxGeometry>
        </mxCell>
        <mxCell id="169" value="AddChildView" style="edgeLabel;html=1;align=center;verticalAlign=middle;resizable=0;points=[];" parent="164" vertex="1" connectable="0">
          <mxGeometry x="0.4141" y="-1" relative="1" as="geometry">
            <mxPoint as="offset" />
          </mxGeometry>
        </mxCell>
        <mxCell id="170" style="edgeStyle=none;html=1;entryX=0;entryY=0.5;entryDx=0;entryDy=0;" parent="1" source="165" target="71" edge="1">
          <mxGeometry relative="1" as="geometry" />
        </mxCell>
        <mxCell id="171" value="AddChildView" style="edgeLabel;html=1;align=center;verticalAlign=middle;resizable=0;points=[];" parent="170" vertex="1" connectable="0">
          <mxGeometry x="-0.2234" y="4" relative="1" as="geometry">
            <mxPoint as="offset" />
          </mxGeometry>
        </mxCell>
        <mxCell id="165" value="contents_container_" style="swimlane;fontStyle=0;childLayout=stackLayout;horizontal=1;startSize=30;horizontalStack=0;resizeParent=1;resizeParentMax=0;resizeLast=0;collapsible=1;marginBottom=0;whiteSpace=wrap;html=1;" parent="1" vertex="1">
          <mxGeometry x="-90" y="-70" width="140" height="60" as="geometry" />
        </mxCell>
        <mxCell id="166" value="View" style="text;strokeColor=none;fillColor=none;align=left;verticalAlign=middle;spacingLeft=4;spacingRight=4;overflow=hidden;points=[[0,0.5],[1,0.5]];portConstraint=eastwest;rotatable=0;whiteSpace=wrap;html=1;" parent="165" vertex="1">
          <mxGeometry y="30" width="140" height="30" as="geometry" />
        </mxCell>
        <mxCell id="172" value="" style="endArrow=classic;startArrow=classic;html=1;exitX=0.5;exitY=0;exitDx=0;exitDy=0;" parent="1" source="141" edge="1">
          <mxGeometry width="50" height="50" relative="1" as="geometry">
            <mxPoint x="180" y="110" as="sourcePoint" />
            <mxPoint x="310" y="130" as="targetPoint" />
          </mxGeometry>
        </mxCell>
        <mxCell id="174" value="" style="endArrow=classic;startArrow=classic;html=1;exitX=0.5;exitY=0;exitDx=0;exitDy=0;entryX=0;entryY=0.5;entryDx=0;entryDy=0;edgeStyle=orthogonalEdgeStyle;" parent="1" source="147" target="13" edge="1">
          <mxGeometry width="50" height="50" relative="1" as="geometry">
            <mxPoint x="-250" y="220" as="sourcePoint" />
            <mxPoint x="-200" y="170" as="targetPoint" />
          </mxGeometry>
        </mxCell>
        <mxCell id="177" value="" style="group" parent="1" vertex="1" connectable="0">
          <mxGeometry x="240" y="-70" width="120" height="130" as="geometry" />
        </mxCell>
        <mxCell id="73" value="" style="group" parent="177" vertex="1" connectable="0">
          <mxGeometry width="120" height="130" as="geometry" />
        </mxCell>
        <mxCell id="71" value="ContentsWebView" style="whiteSpace=wrap;html=1;" parent="73" vertex="1">
          <mxGeometry width="120" height="60" as="geometry" />
        </mxCell>
        <mxCell id="72" value="contents_web_view_" style="rounded=0;whiteSpace=wrap;html=1;" parent="73" vertex="1">
          <mxGeometry width="120" height="20" as="geometry" />
        </mxCell>
        <mxCell id="176" value="WebView" style="rounded=0;whiteSpace=wrap;html=1;" parent="177" vertex="1">
          <mxGeometry y="40" width="120" height="30" as="geometry" />
        </mxCell>
        <mxCell id="181" value="" style="html=1;entryX=0.493;entryY=1.026;entryDx=0;entryDy=0;entryPerimeter=0;" parent="1" source="72" target="187" edge="1">
          <mxGeometry relative="1" as="geometry">
            <mxPoint x="340" y="-110" as="targetPoint" />
          </mxGeometry>
        </mxCell>
        <mxCell id="190" style="edgeStyle=elbowEdgeStyle;html=1;entryX=0.5;entryY=0;entryDx=0;entryDy=0;elbow=vertical;" parent="1" source="186" target="82" edge="1">
          <mxGeometry relative="1" as="geometry">
            <Array as="points">
              <mxPoint x="530" y="-520" />
            </Array>
          </mxGeometry>
        </mxCell>
        <mxCell id="191" value="Attach" style="edgeLabel;html=1;align=center;verticalAlign=middle;resizable=0;points=[];" parent="190" vertex="1" connectable="0">
          <mxGeometry x="0.2268" relative="1" as="geometry">
            <mxPoint as="offset" />
          </mxGeometry>
        </mxCell>
        <mxCell id="186" value="NativeViewHost" style="swimlane;fontStyle=0;childLayout=stackLayout;horizontal=1;startSize=30;horizontalStack=0;resizeParent=1;resizeParentMax=0;resizeLast=0;collapsible=1;marginBottom=0;whiteSpace=wrap;html=1;" parent="1" vertex="1">
          <mxGeometry x="230" y="-190" width="140" height="60" as="geometry" />
        </mxCell>
        <mxCell id="187" value="View" style="text;strokeColor=none;fillColor=none;align=left;verticalAlign=middle;spacingLeft=4;spacingRight=4;overflow=hidden;points=[[0,0.5],[1,0.5]];portConstraint=eastwest;rotatable=0;whiteSpace=wrap;html=1;" parent="186" vertex="1">
          <mxGeometry y="30" width="140" height="30" as="geometry" />
        </mxCell>
        <mxCell id="195" value="" style="endArrow=classic;html=1;edgeStyle=elbowEdgeStyle;elbow=vertical;entryX=0.627;entryY=-0.02;entryDx=0;entryDy=0;entryPerimeter=0;" parent="1" target="105" edge="1">
          <mxGeometry width="50" height="50" relative="1" as="geometry">
            <mxPoint x="-670" y="450" as="sourcePoint" />
            <mxPoint x="-390" y="350" as="targetPoint" />
            <Array as="points">
              <mxPoint x="-550" y="30" />
            </Array>
          </mxGeometry>
        </mxCell>
        <mxCell id="196" value="GetWidget()-&amp;gt;GetLayer()" style="edgeLabel;html=1;align=center;verticalAlign=middle;resizable=0;points=[];" parent="195" vertex="1" connectable="0">
          <mxGeometry x="0.3747" y="3" relative="1" as="geometry">
            <mxPoint as="offset" />
          </mxGeometry>
        </mxCell>
        <mxCell id="203" value="" style="edgeStyle=orthogonalEdgeStyle;html=1;" parent="1" source="197" target="202" edge="1">
          <mxGeometry relative="1" as="geometry" />
        </mxCell>
        <mxCell id="197" value="WebContentsViewAura" style="rounded=0;whiteSpace=wrap;html=1;" parent="1" vertex="1">
          <mxGeometry x="1400" y="-650" width="160" height="60" as="geometry" />
        </mxCell>
        <mxCell id="207" value="" style="edgeStyle=elbowEdgeStyle;html=1;" parent="1" source="202" target="206" edge="1">
          <mxGeometry relative="1" as="geometry" />
        </mxCell>
        <mxCell id="209" value="CreateAuraWindow" style="edgeLabel;html=1;align=center;verticalAlign=middle;resizable=0;points=[];" parent="207" vertex="1" connectable="0">
          <mxGeometry x="-0.2286" y="-2" relative="1" as="geometry">
            <mxPoint x="-6" as="offset" />
          </mxGeometry>
        </mxCell>
        <mxCell id="212" style="edgeStyle=elbowEdgeStyle;html=1;exitX=0;exitY=0.75;exitDx=0;exitDy=0;entryX=1;entryY=0.75;entryDx=0;entryDy=0;" parent="1" source="202" target="206" edge="1">
          <mxGeometry relative="1" as="geometry">
            <Array as="points">
              <mxPoint x="1270" y="-560" />
            </Array>
          </mxGeometry>
        </mxCell>
        <mxCell id="213" value="frame_sink_id_ for&amp;nbsp;SetEmbedFrameSinkId" style="edgeLabel;html=1;align=center;verticalAlign=middle;resizable=0;points=[];" parent="212" vertex="1" connectable="0">
          <mxGeometry x="0.3286" y="3" relative="1" as="geometry">
            <mxPoint x="73" y="14" as="offset" />
          </mxGeometry>
        </mxCell>
        <mxCell id="215" value="" style="edgeStyle=none;html=1;" parent="1" source="202" target="214" edge="1">
          <mxGeometry relative="1" as="geometry" />
        </mxCell>
        <mxCell id="216" value="SynchronizeVisualProperties -&amp;gt;&amp;nbsp;EmbedSurface&amp;nbsp;" style="edgeLabel;html=1;align=center;verticalAlign=middle;resizable=0;points=[];" parent="215" vertex="1" connectable="0">
          <mxGeometry x="0.25" y="-2" relative="1" as="geometry">
            <mxPoint as="offset" />
          </mxGeometry>
        </mxCell>
        <mxCell id="202" value="RenderWidgetHostViewAura" style="whiteSpace=wrap;html=1;rounded=0;" parent="1" vertex="1">
          <mxGeometry x="1360" y="-790" width="240" height="60" as="geometry" />
        </mxCell>
        <mxCell id="217" style="edgeStyle=elbowEdgeStyle;html=1;elbow=vertical;" parent="1" source="206" edge="1">
          <mxGeometry relative="1" as="geometry">
            <mxPoint x="1480" y="-820" as="targetPoint" />
          </mxGeometry>
        </mxCell>
        <mxCell id="218" value="GetLocalSurfaceId" style="edgeLabel;html=1;align=center;verticalAlign=middle;resizable=0;points=[];" parent="217" vertex="1" connectable="0">
          <mxGeometry x="-0.2114" y="-3" relative="1" as="geometry">
            <mxPoint as="offset" />
          </mxGeometry>
        </mxCell>
        <mxCell id="222" style="edgeStyle=elbowEdgeStyle;elbow=vertical;html=1;entryX=0.5;entryY=1;entryDx=0;entryDy=0;" parent="1" source="206" target="221" edge="1">
          <mxGeometry relative="1" as="geometry" />
        </mxCell>
        <mxCell id="206" value="aura::Window" style="whiteSpace=wrap;html=1;rounded=0;" parent="1" vertex="1">
          <mxGeometry x="1080" y="-790" width="120" height="60" as="geometry" />
        </mxCell>
        <mxCell id="223" style="edgeStyle=orthogonalEdgeStyle;elbow=vertical;html=1;entryX=1;entryY=0.25;entryDx=0;entryDy=0;" parent="1" source="214" target="220" edge="1">
          <mxGeometry relative="1" as="geometry" />
        </mxCell>
        <mxCell id="224" value="EmbedSurface- &amp;gt; SetShowSurface" style="edgeLabel;html=1;align=center;verticalAlign=middle;resizable=0;points=[];" parent="223" vertex="1" connectable="0">
          <mxGeometry x="-0.1102" y="-4" relative="1" as="geometry">
            <mxPoint y="-16" as="offset" />
          </mxGeometry>
        </mxCell>
        <mxCell id="214" value="DelegatedFrameHost" style="whiteSpace=wrap;html=1;rounded=0;" parent="1" vertex="1">
          <mxGeometry x="1370" y="-930" width="220" height="60" as="geometry" />
        </mxCell>
        <mxCell id="220" value="ui::Layer" style="whiteSpace=wrap;html=1;" parent="1" vertex="1">
          <mxGeometry x="1080" y="-1010" width="120" height="60" as="geometry" />
        </mxCell>
        <mxCell id="221" value="cc::Layer cc_layer_" style="rounded=0;whiteSpace=wrap;html=1;" parent="1" vertex="1">
          <mxGeometry x="1080" y="-975" width="120" height="25" as="geometry" />
        </mxCell>
        <mxCell id="227" value="" style="edgeStyle=none;html=1;" parent="1" source="225" target="226" edge="1">
          <mxGeometry relative="1" as="geometry" />
        </mxCell>
        <mxCell id="229" value="" style="edgeStyle=none;html=1;" parent="1" source="225" target="228" edge="1">
          <mxGeometry relative="1" as="geometry" />
        </mxCell>
        <mxCell id="230" value="" style="edgeStyle=none;html=1;" parent="1" source="225" target="228" edge="1">
          <mxGeometry relative="1" as="geometry" />
        </mxCell>
        <mxCell id="232" value="" style="edgeStyle=none;html=1;" parent="1" source="225" target="228" edge="1">
          <mxGeometry relative="1" as="geometry" />
        </mxCell>
        <mxCell id="233" value="" style="edgeStyle=none;html=1;" parent="1" source="225" target="228" edge="1">
          <mxGeometry relative="1" as="geometry" />
        </mxCell>
        <mxCell id="234" style="edgeStyle=none;html=1;entryX=0.5;entryY=0;entryDx=0;entryDy=0;" parent="1" source="225" target="236" edge="1">
          <mxGeometry relative="1" as="geometry">
            <mxPoint x="140" y="1370" as="targetPoint" />
          </mxGeometry>
        </mxCell>
        <mxCell id="237" style="edgeStyle=none;html=1;exitX=1;exitY=1;exitDx=0;exitDy=0;" parent="1" source="225" edge="1">
          <mxGeometry relative="1" as="geometry">
            <mxPoint x="290" y="1380" as="targetPoint" />
          </mxGeometry>
        </mxCell>
        <mxCell id="239" style="edgeStyle=none;html=1;exitX=1;exitY=0.75;exitDx=0;exitDy=0;" parent="1" source="225" edge="1">
          <mxGeometry relative="1" as="geometry">
            <mxPoint x="490" y="1380" as="targetPoint" />
          </mxGeometry>
        </mxCell>
        <mxCell id="241" style="edgeStyle=none;html=1;exitX=1;exitY=0.5;exitDx=0;exitDy=0;" parent="1" source="225" edge="1">
          <mxGeometry relative="1" as="geometry">
            <mxPoint x="690" y="1380" as="targetPoint" />
          </mxGeometry>
        </mxCell>
        <mxCell id="225" value="Compositor" style="rounded=0;whiteSpace=wrap;html=1;" parent="1" vertex="1">
          <mxGeometry x="-60" y="1230" width="120" height="60" as="geometry" />
        </mxCell>
        <mxCell id="248" style="edgeStyle=none;html=1;entryX=0.5;entryY=0;entryDx=0;entryDy=0;" parent="1" source="226" target="250" edge="1">
          <mxGeometry relative="1" as="geometry">
            <mxPoint x="-80" y="1500" as="targetPoint" />
          </mxGeometry>
        </mxCell>
        <mxCell id="251" style="edgeStyle=none;html=1;entryX=0.5;entryY=0;entryDx=0;entryDy=0;" parent="1" source="226" target="252" edge="1">
          <mxGeometry relative="1" as="geometry">
            <mxPoint x="-60" y="1500" as="targetPoint" />
          </mxGeometry>
        </mxCell>
        <mxCell id="331" style="edgeStyle=none;html=1;exitX=1;exitY=0.75;exitDx=0;exitDy=0;entryX=0.5;entryY=0;entryDx=0;entryDy=0;endArrow=classic;endFill=1;" parent="1" source="226" target="317" edge="1">
          <mxGeometry relative="1" as="geometry" />
        </mxCell>
        <mxCell id="226" value="cc::Layer" style="rounded=0;whiteSpace=wrap;html=1;" parent="1" vertex="1">
          <mxGeometry x="-240" y="1380" width="120" height="60" as="geometry" />
        </mxCell>
        <mxCell id="228" value="LayerTreeHost" style="rounded=0;whiteSpace=wrap;html=1;" parent="1" vertex="1">
          <mxGeometry x="-60" y="1380" width="120" height="60" as="geometry" />
        </mxCell>
        <mxCell id="236" value="LayerTreeHostImpl" style="whiteSpace=wrap;html=1;" parent="1" vertex="1">
          <mxGeometry x="110" y="1380" width="120" height="60" as="geometry" />
        </mxCell>
        <mxCell id="238" value="CompositorFrame" style="whiteSpace=wrap;html=1;" parent="1" vertex="1">
          <mxGeometry x="270" y="1380" width="120" height="60" as="geometry" />
        </mxCell>
        <mxCell id="240" value="AsyncLayerTreeFrameSink&lt;br&gt;" style="whiteSpace=wrap;html=1;" parent="1" vertex="1">
          <mxGeometry x="450" y="1380" width="160" height="60" as="geometry" />
        </mxCell>
        <mxCell id="242" value="Viz Service" style="whiteSpace=wrap;html=1;" parent="1" vertex="1">
          <mxGeometry x="630" y="1380" width="120" height="60" as="geometry" />
        </mxCell>
        <mxCell id="250" value="views::View" style="whiteSpace=wrap;html=1;" parent="1" vertex="1">
          <mxGeometry x="-400" y="1510" width="120" height="60" as="geometry" />
        </mxCell>
        <mxCell id="255" style="edgeStyle=none;html=1;entryX=0.5;entryY=0;entryDx=0;entryDy=0;" parent="1" source="252" target="256" edge="1">
          <mxGeometry relative="1" as="geometry">
            <mxPoint x="-90" y="1600" as="targetPoint" />
          </mxGeometry>
        </mxCell>
        <mxCell id="258" value="" style="edgeStyle=none;html=1;" parent="1" source="252" target="257" edge="1">
          <mxGeometry relative="1" as="geometry" />
        </mxCell>
        <mxCell id="321" style="edgeStyle=none;html=1;exitX=1;exitY=1;exitDx=0;exitDy=0;entryX=0.5;entryY=0;entryDx=0;entryDy=0;endArrow=classic;endFill=1;" parent="1" source="252" target="260" edge="1">
          <mxGeometry relative="1" as="geometry" />
        </mxCell>
        <mxCell id="252" value="views::RootView" style="whiteSpace=wrap;html=1;" parent="1" vertex="1">
          <mxGeometry x="-90" y="1500" width="120" height="60" as="geometry" />
        </mxCell>
        <mxCell id="254" value="views::Widget" style="whiteSpace=wrap;html=1;" parent="1" vertex="1">
          <mxGeometry x="430" y="1640" width="120" height="60" as="geometry" />
        </mxCell>
        <mxCell id="256" value="views::NonClientView" style="whiteSpace=wrap;html=1;" parent="1" vertex="1">
          <mxGeometry x="-240" y="1640" width="150" height="60" as="geometry" />
        </mxCell>
        <mxCell id="257" value="views::NonClientFrameView" style="whiteSpace=wrap;html=1;" parent="1" vertex="1">
          <mxGeometry x="-30" y="1640" width="180" height="60" as="geometry" />
        </mxCell>
        <mxCell id="260" value="views::ClientView" style="whiteSpace=wrap;html=1;" parent="1" vertex="1">
          <mxGeometry x="240" y="1640" width="120" height="60" as="geometry" />
        </mxCell>
        <mxCell id="266" value="" style="edgeStyle=none;html=1;" parent="1" source="263" target="265" edge="1">
          <mxGeometry relative="1" as="geometry" />
        </mxCell>
        <mxCell id="263" value="views::NativeWidget" style="whiteSpace=wrap;html=1;" parent="1" vertex="1">
          <mxGeometry x="610" y="1640" width="120" height="60" as="geometry" />
        </mxCell>
        <mxCell id="338" value="" style="edgeStyle=none;html=1;endArrow=classic;endFill=1;" parent="1" source="265" target="337" edge="1">
          <mxGeometry relative="1" as="geometry" />
        </mxCell>
        <mxCell id="265" value="WindowTreeHost" style="whiteSpace=wrap;html=1;" parent="1" vertex="1">
          <mxGeometry x="583" y="1790" width="174" height="60" as="geometry" />
        </mxCell>
        <mxCell id="272" value="" style="edgeStyle=none;html=1;endArrow=classic;endFill=1;" parent="1" source="270" target="271" edge="1">
          <mxGeometry relative="1" as="geometry" />
        </mxCell>
        <mxCell id="270" value="views::WebView" style="whiteSpace=wrap;html=1;" parent="1" vertex="1">
          <mxGeometry x="-70" y="2200" width="120" height="60" as="geometry" />
        </mxCell>
        <mxCell id="274" value="" style="edgeStyle=none;html=1;endArrow=oval;endFill=1;" parent="1" source="271" target="273" edge="1">
          <mxGeometry relative="1" as="geometry" />
        </mxCell>
        <mxCell id="284" value="" style="edgeStyle=none;html=1;endArrow=classic;endFill=1;" parent="1" source="271" target="283" edge="1">
          <mxGeometry relative="1" as="geometry" />
        </mxCell>
        <mxCell id="271" value="contents::WebContents" style="whiteSpace=wrap;html=1;" parent="1" vertex="1">
          <mxGeometry x="-90" y="2338" width="160" height="60" as="geometry" />
        </mxCell>
        <mxCell id="276" value="" style="edgeStyle=none;html=1;endArrow=classic;endFill=1;" parent="1" source="273" target="275" edge="1">
          <mxGeometry relative="1" as="geometry" />
        </mxCell>
        <mxCell id="278" value="" style="edgeStyle=none;html=1;endArrow=oval;endFill=1;" parent="1" source="273" target="277" edge="1">
          <mxGeometry relative="1" as="geometry" />
        </mxCell>
        <mxCell id="280" value="" style="edgeStyle=none;html=1;endArrow=classic;endFill=1;" parent="1" source="273" target="277" edge="1">
          <mxGeometry relative="1" as="geometry" />
        </mxCell>
        <mxCell id="282" value="" style="edgeStyle=none;html=1;endArrow=classic;endFill=1;" parent="1" source="273" target="281" edge="1">
          <mxGeometry relative="1" as="geometry" />
        </mxCell>
        <mxCell id="273" value="contents::FrameTree" style="whiteSpace=wrap;html=1;" parent="1" vertex="1">
          <mxGeometry x="-90" y="2478" width="160" height="60" as="geometry" />
        </mxCell>
        <mxCell id="275" value="contents::RenderFrameHostManager" style="whiteSpace=wrap;html=1;" parent="1" vertex="1">
          <mxGeometry x="-330" y="2618" width="280" height="60" as="geometry" />
        </mxCell>
        <mxCell id="277" value="contents::RenderViewHost" style="whiteSpace=wrap;html=1;" parent="1" vertex="1">
          <mxGeometry x="20" y="2618" width="160" height="60" as="geometry" />
        </mxCell>
        <mxCell id="293" value="" style="edgeStyle=none;html=1;endArrow=classic;endFill=1;" parent="1" source="281" target="292" edge="1">
          <mxGeometry relative="1" as="geometry" />
        </mxCell>
        <mxCell id="281" value="contents::RenderWidgetHost" style="whiteSpace=wrap;html=1;" parent="1" vertex="1">
          <mxGeometry x="254" y="2618" width="160" height="60" as="geometry" />
        </mxCell>
        <mxCell id="mnQy17VipSjcy063AEaN-342" style="edgeStyle=orthogonalEdgeStyle;rounded=0;orthogonalLoop=1;jettySize=auto;html=1;entryX=0.5;entryY=0;entryDx=0;entryDy=0;" edge="1" parent="1" source="283" target="mnQy17VipSjcy063AEaN-340">
          <mxGeometry relative="1" as="geometry" />
        </mxCell>
        <mxCell id="mnQy17VipSjcy063AEaN-347" style="rounded=0;orthogonalLoop=1;jettySize=auto;html=1;exitX=0.75;exitY=1;exitDx=0;exitDy=0;entryX=0.5;entryY=0;entryDx=0;entryDy=0;" edge="1" parent="1" source="283" target="mnQy17VipSjcy063AEaN-346">
          <mxGeometry relative="1" as="geometry" />
        </mxCell>
        <mxCell id="283" value="contents::WebContentsView" style="whiteSpace=wrap;html=1;" parent="1" vertex="1">
          <mxGeometry x="621" y="2478" width="240" height="60" as="geometry" />
        </mxCell>
        <mxCell id="mnQy17VipSjcy063AEaN-345" style="edgeStyle=orthogonalEdgeStyle;rounded=0;orthogonalLoop=1;jettySize=auto;html=1;exitX=0.5;exitY=1;exitDx=0;exitDy=0;entryX=0.5;entryY=0;entryDx=0;entryDy=0;" edge="1" parent="1" source="285" target="288">
          <mxGeometry relative="1" as="geometry" />
        </mxCell>
        <mxCell id="285" value="aura::Window" style="whiteSpace=wrap;html=1;" parent="1" vertex="1">
          <mxGeometry x="621" y="2850" width="240" height="60" as="geometry" />
        </mxCell>
        <mxCell id="291" value="" style="edgeStyle=none;html=1;endArrow=classic;endFill=1;" parent="1" source="288" target="290" edge="1">
          <mxGeometry relative="1" as="geometry" />
        </mxCell>
        <mxCell id="288" value="ui::Layer" style="whiteSpace=wrap;html=1;" parent="1" vertex="1">
          <mxGeometry x="621" y="3030" width="240" height="60" as="geometry" />
        </mxCell>
        <mxCell id="290" value="cc::SurfaceLayer" style="whiteSpace=wrap;html=1;" parent="1" vertex="1">
          <mxGeometry x="621" y="3230" width="240" height="60" as="geometry" />
        </mxCell>
        <mxCell id="294" style="edgeStyle=none;html=1;entryX=0;entryY=0.5;entryDx=0;entryDy=0;endArrow=oval;endFill=1;" parent="1" source="292" target="290" edge="1">
          <mxGeometry relative="1" as="geometry" />
        </mxCell>
        <mxCell id="292" value="viz::FrameSinkId" style="whiteSpace=wrap;html=1;" parent="1" vertex="1">
          <mxGeometry x="254" y="3230" width="160" height="60" as="geometry" />
        </mxCell>
        <mxCell id="332" style="edgeStyle=none;html=1;exitX=0.5;exitY=1;exitDx=0;exitDy=0;entryX=0.5;entryY=0;entryDx=0;entryDy=0;endArrow=classic;endFill=1;" parent="1" source="317" target="254" edge="1">
          <mxGeometry relative="1" as="geometry" />
        </mxCell>
        <mxCell id="335" style="edgeStyle=none;html=1;endArrow=classic;endFill=1;" parent="1" source="317" target="263" edge="1">
          <mxGeometry relative="1" as="geometry" />
        </mxCell>
        <mxCell id="339" style="edgeStyle=none;html=1;exitX=0.75;exitY=1;exitDx=0;exitDy=0;endArrow=classic;endFill=1;entryX=0.5;entryY=0;entryDx=0;entryDy=0;" parent="1" source="317" target="340" edge="1">
          <mxGeometry relative="1" as="geometry">
            <mxPoint x="800" y="1630" as="targetPoint" />
          </mxGeometry>
        </mxCell>
        <mxCell id="317" value="aura::Window as RootWindow" style="whiteSpace=wrap;html=1;" parent="1" vertex="1">
          <mxGeometry x="560" y="1500" width="174" height="60" as="geometry" />
        </mxCell>
        <mxCell id="337" value="HWND" style="whiteSpace=wrap;html=1;" parent="1" vertex="1">
          <mxGeometry x="583" y="1930" width="174" height="60" as="geometry" />
        </mxCell>
        <mxCell id="340" value="ui::Layer as RootLayer" style="whiteSpace=wrap;html=1;" parent="1" vertex="1">
          <mxGeometry x="770" y="1640" width="120" height="60" as="geometry" />
        </mxCell>
        <mxCell id="mnQy17VipSjcy063AEaN-343" style="edgeStyle=orthogonalEdgeStyle;rounded=0;orthogonalLoop=1;jettySize=auto;html=1;exitX=0.5;exitY=1;exitDx=0;exitDy=0;entryX=0.5;entryY=0;entryDx=0;entryDy=0;" edge="1" parent="1" source="mnQy17VipSjcy063AEaN-340" target="285">
          <mxGeometry relative="1" as="geometry" />
        </mxCell>
        <mxCell id="mnQy17VipSjcy063AEaN-340" value="RenderWidgetHostView" style="whiteSpace=wrap;html=1;" vertex="1" parent="1">
          <mxGeometry x="661" y="2618" width="160" height="60" as="geometry" />
        </mxCell>
        <mxCell id="mnQy17VipSjcy063AEaN-349" style="edgeStyle=orthogonalEdgeStyle;rounded=0;orthogonalLoop=1;jettySize=auto;html=1;entryX=1;entryY=0.5;entryDx=0;entryDy=0;endArrow=oval;endFill=1;" edge="1" parent="1" source="mnQy17VipSjcy063AEaN-346" target="290">
          <mxGeometry relative="1" as="geometry" />
        </mxCell>
        <mxCell id="mnQy17VipSjcy063AEaN-346" value="DelegatedFrameHost" style="whiteSpace=wrap;html=1;" vertex="1" parent="1">
          <mxGeometry x="970" y="2618" width="170" height="60" as="geometry" />
        </mxCell>
      </root>
    </mxGraphModel>
  </diagram>
</mxfile>
